<svg xmlns:dc="http://purl.org/dc/elements/1.1/" 
  xmlns:cc="http://creativecommons.org/ns#" 
  xmlns:rdf="http://www.w3.org/1999/02/22-rdf-syntax-ns#" 
  xmlns:svg="http://www.w3.org/2000/svg" 
  xmlns="http://www.w3.org/2000/svg" 
  xmlns:xlink="http://www.w3.org/1999/xlink" 
  xmlns:sodipodi="http://sodipodi.sourceforge.net/DTD/sodipodi-0.dtd" 
  xmlns:inkscape="http://www.inkscape.org/namespaces/inkscape" version="1.1" id="svg2" 
  width="19" height="19" 
  viewBox="0 0 300 300" fill="#cc3084" sodipodi:docname="telegram.svg" inkscape:version="0.92.2 (5c3e80d, 2017-08-06)">
  
  
  
  
  <g id="g12">
    <path d="M 105.11548,286.5373 C 99.478463,284.73 94.343188,279.81535 91.492902,273.5 90.251754,270.75 85.161909,259.89333 80.182135,249.37406 75.202362,238.8548 70.369374,227.63854 69.442162,224.44904 67.399287,217.4218 67.94538,209.98755 70.934901,204.1276 L 73.040648,200 68.270324,199.97555 C 65.646646,199.96211 61.475,199.48995 59,198.92632 51.241103,197.15937 19.351,184.9645 13.842941,181.65812 -1.6439444,172.36166 -4.116695,154.89506 8.3161139,142.61867 12.625749,138.36325 17.547547,135.49828 37.5,125.63079 205.57531,42.509044 262.03453,15.082743 267.25,14.024693 c 11.86297,-2.406612 23.77523,2.857127 29.14556,12.878718 5.53949,10.337275 6.32318,6.764855 -25.69524,117.131019 -15.72225,54.19394 -29.09252,99.86694 -29.71172,101.49557 -3.04802,8.01689 -10.52364,13.40519 -18.65754,13.44804 -2.95909,0.0156 -13.24842,-3.46049 -35.45545,-11.97804 -17.20758,-6.6 -31.36563,-12 -31.46234,-12 -0.0967,0 -0.66913,1.95902 -1.27203,4.35337 -1.28545,5.10497 -19.31476,32.77966 -26.03685,39.96612 -2.49779,2.67033 -5.68653,5.4473 -7.08609,6.17104 -4.12149,2.13131 -11.08957,2.58997 -15.90282,1.04677 z m 18.76881,-35.4292 c 10.74533,-15.95633 11.75398,-18.04696 10.15159,-21.04106 C 132.72728,227.6219 97.355059,210 93.755573,210 c -3.760058,0 -5.0863,2.28309 -4.504955,7.75517 0.344268,3.24052 3.925374,11.95195 11.295412,27.47729 8.73197,18.39432 11.04986,22.51789 12.14609,21.60809 0.74512,-0.61839 5.7816,-7.698 11.19217,-15.73245 z M 223.84197,232.25 C 234.6501,196.43111 279,41.078018 279,39.03716 279,34.343475 276.90194,32.631815 271.9055,33.249257 268.79693,33.633404 231.87888,51.371679 146.5,93.50372 79.95,126.34425 24.4875,154.14411 23.25,155.2812 c -2.69732,2.47845 -2.884615,5.71758 -0.5,8.64717 1.098044,1.34899 8.828375,4.80752 20.75,9.28351 17.991754,6.75502 19.451057,7.13583 27.5,7.17607 5.698251,0.0285 10.253014,-0.55683 13.818329,-1.77578 3.999737,-1.36748 20.735241,-13.26377 67.500001,-47.98182 76.60074,-56.868213 79.59974,-59.045616 80.32547,-58.319886 0.32219,0.322195 -24.52163,26.004452 -55.2085,57.071686 -30.68686,31.06723 -56.37258,57.52807 -57.07937,58.80186 -2.68523,4.83942 -0.94939,10.69742 4.06578,13.72094 1.69306,1.02071 16.35329,6.85005 32.57829,12.95409 16.225,6.10405 36.925,14.00388 46,17.55518 9.075,3.55131 17.01867,6.48591 17.6526,6.52135 0.63393,0.0354 2.06914,-2.97307 3.18937,-6.68557 z" id="path26" inkscape:connector-curvature="0"/>
    <path d="m 102,285.05132 c -1.925,-1.02316 -4.483253,-2.91577 -5.685007,-4.20581 -3.684267,-3.9549 -26.157019,-52.62568 -27.403511,-59.34966 -1.214875,-6.55342 -0.06048,-14.59992 2.598423,-18.11176 C 73.693179,200.50045 73.329288,200 69.049221,200 62.318863,200 55.188316,198.01794 35.600948,190.70247 13.954088,182.61782 8.8355513,179.55919 4.25,171.96842 1.4925889,167.40389 1,165.62944 1,160.26099 1,152.51372 4.057243,145.81877 9.8652266,140.84736 13.310773,137.8981 243.87939,23.151628 260,16.363449 c 4.02005,-1.692791 7.45948,-2.322365 12.78212,-2.339714 11.47664,-0.03741 19.20108,4.288078 23.669,13.254014 5.01581,10.065426 5.65038,7.217692 -26.09118,117.087741 -15.75203,54.52398 -29.70857,101.26995 -31.01453,103.87994 -3.05772,6.11091 -8.39402,9.70107 -15.48686,10.41923 -4.67201,0.47306 -6.70382,0.005 -15.85855,-3.65539 -5.775,-2.30888 -19.90749,-7.78132 -31.40554,-12.16097 -21.11804,-8.04394 -22.52882,-8.29752 -22.57915,-4.05846 -0.0283,2.38467 -4.23321,9.6204 -14.13855,24.32941 -9.76104,14.49472 -15.65183,21.08433 -20.49414,22.92538 -4.17927,1.58895 -13.52954,1.05464 -17.38262,-0.99331 z m 23.03727,-35.25314 C 130.51677,241.64478 135,234.0797 135,232.9869 c 0,-3.37743 -3.48341,-5.77129 -21.13916,-14.52715 -17.230477,-8.54495 -21.524828,-9.77447 -23.94676,-6.85622 -2.74748,3.31051 -1.191599,8.9044 7.669746,27.57517 4.782514,10.07672 9.775614,20.73728 11.095774,23.69014 2.35483,5.26715 2.43812,5.3346 4.39762,3.56128 1.09853,-0.99416 6.48056,-8.47853 11.96005,-16.63194 z M 251.06676,138.94311 C 266.43004,85.836814 279,40.779414 279,38.815551 c 0,-4.353536 -1.97235,-6.178244 -6.49439,-6.008243 -3.85278,0.144841 -245.321916,118.732042 -249.219114,122.393272 -2.814061,2.64367 -2.957862,6.88187 -0.314661,9.27393 3.175012,2.87335 37.643833,15.51598 44.159407,16.197 7.163662,0.74875 16.986869,-1.06639 22.615798,-4.17896 2.335871,-1.29165 34.51087,-24.81267 71.5,-52.26893 C 226.11045,76.076847 233,71.121561 233,72.615567 c 0,0.377264 -25.38968,26.188519 -56.42151,57.358343 -61.72946,62.00396 -59.93924,59.85233 -56.24484,67.59957 2.07986,4.36152 3.54316,5.05268 38.66635,18.26328 16.225,6.10257 36.925,13.97781 46,17.50052 16.09372,6.24722 16.52011,6.3527 17.31676,4.28382 0.44922,-1.1666 13.38672,-45.5717 28.75,-98.67799 z" id="path24" inkscape:connector-curvature="0"/>
    <path d="m 102.5,285.10996 c -2.2,-1.01537 -4.970151,-2.91799 -6.155891,-4.22804 -3.832278,-4.23406 -26.078417,-52.75859 -27.293368,-59.53383 -1.20741,-6.73319 -0.182668,-13.94321 2.584567,-18.18485 0.838474,-1.28522 1.376041,-2.44582 1.194595,-2.5791 C 72.648456,200.45086 68.675,199.84159 64,199.23021 54.248846,197.95498 20.78017,185.94053 12.793807,180.84841 7.5197694,177.48567 2.3627126,170.45035 1.3965151,165.30007 -0.44491079,155.48443 3.7142726,145.33657 12.000961,139.42663 17.132342,135.76701 253.59615,18.826441 262,15.792363 c 4.10998,-1.483843 7.26912,-1.887525 12.5,-1.597276 7.83507,0.434748 12.67138,2.388305 17.42974,7.040483 5.39708,5.276647 6.53106,8.351348 6.55166,17.76443 0.0179,8.193582 -1.00153,12.014794 -28.27979,106 -15.56411,53.625 -29.44594,99.88545 -30.8485,102.80099 -3.09446,6.43257 -8.05741,10.02681 -14.94525,10.82357 -5.61164,0.64914 -3.00478,1.48694 -40.4033,-12.98487 C 168.88207,239.78786 156.17814,235 155.77361,235 c -0.40453,0 -1.03293,1.2375 -1.39646,2.75 -1.10289,4.58876 -4.24298,10.14243 -13.44548,23.78017 -10.48952,15.54505 -15.69201,21.65369 -20.30651,23.84341 -4.56073,2.16421 -13.13496,2.0395 -18.12516,-0.26362 z M 113.66459,266.25 C 119.58707,258.76716 135,234.47329 135,232.62113 c 0,-1.27114 -0.80598,-3.04055 -1.79106,-3.93204 C 129.86358,225.66158 97.005477,210 93.999099,210 c -2.04766,0 -3.456013,0.76771 -4.593732,2.50408 -2.348216,3.58384 -1.057401,7.75598 8.661619,27.99592 4.489774,9.35 9.211674,19.3625 10.493094,22.25 1.28142,2.8875 2.64252,5.25 3.02465,5.25 0.38213,0 1.31807,-0.7875 2.07986,-1.75 z m 110.18234,-33 C 237.38291,188.49976 279,41.870081 279,38.928934 279,34.165082 275.66903,31.377559 271.25729,32.449437 266.30015,33.653823 25.193726,153.16489 22.991174,155.5094 c -2.769375,2.94786 -2.310841,7.18375 1.047792,9.67939 1.396431,1.03763 10.396431,4.8972 20,8.57684 17.32402,6.63774 17.539503,6.69031 27.461034,6.69904 8.656262,0.008 10.739056,-0.33648 15.5,-2.56073 3.025,-1.41324 36.18294,-25.33812 73.6843,-53.16639 C 227.65146,75.04388 233,71.192138 233,72.659484 c 0,0.401419 -24.90979,25.729751 -55.35509,56.285186 -30.4453,30.55543 -56.0953,56.66796 -57,58.02784 -2.21471,3.32899 -2.09093,9.19075 0.25711,12.1758 2.5477,3.23887 5.85932,4.66312 47.09798,20.25578 19.525,7.38255 39.55,15.0201 44.5,16.97233 4.95,1.95224 9.06867,3.56618 9.1526,3.58655 0.0839,0.0204 1.07138,-3.00047 2.19433,-6.71297 z" id="path22" inkscape:connector-curvature="0"/>
    <path d="m 102.5,285.10996 c -2.2,-1.01537 -4.959685,-2.91799 -6.132634,-4.22804 -2.094443,-2.33926 -24.020078,-48.11956 -26.236425,-54.78114 -0.622017,-1.86958 -1.125521,-6.59458 -1.118896,-10.5 0.0095,-5.58589 0.508438,-7.96871 2.338796,-11.16905 l 2.326751,-4.06827 -8.668047,-1.09411 C 58.577034,198.45742 51.332783,196.32301 36.920749,190.99342 17.130579,183.67498 12.206076,181.21522 7.469238,176.28259 -2.3678021,166.03895 -0.66897849,148.88558 11.043524,140.1923 15.799242,136.66251 250.20571,20.478086 260.77283,16.413068 280.57643,8.7949041 299,19.992503 299,39.647033 c 0,3.470031 -8.53622,34.413336 -29.03569,105.252657 -15.96963,55.18572 -29.66216,101.54912 -30.42784,103.02978 -2.62565,5.07746 -7.57389,8.93547 -13.02521,10.15542 -6.46545,1.44691 -6.50188,1.43618 -42.4379,-12.49864 -15.08465,-5.84934 -27.83217,-10.49998 -28.32781,-10.33477 -0.49565,0.16522 -1.66315,2.53872 -2.59444,5.27446 -1.77485,5.21371 -18.34221,30.89837 -24.67789,38.25855 -2.02846,2.35647 -5.42183,5.16897 -7.54083,6.25 -4.92298,2.51152 -13.0818,2.54492 -18.43239,0.0755 z m 21.49988,-33.69897 C 130.36071,241.88654 135,233.92879 135,232.54251 c 0,-3.43679 -3.21144,-5.58195 -21.83818,-14.58733 -17.664049,-8.53996 -22.196204,-9.62797 -24.235222,-5.81803 -0.629073,1.17544 -0.888702,3.70895 -0.576953,5.63003 0.7399,4.55947 22.727285,51.30331 23.815665,50.63065 0.45895,-0.28364 5.7845,-7.92772 11.83457,-16.98684 z M 224.37413,231.75 C 238.79482,184.06932 279,42.284393 279,39.110026 c 0,-4.936253 -3.24681,-7.738723 -7.74271,-6.683094 -3.07828,0.722772 -243.500356,119.013728 -246.938915,121.497328 -2.988623,2.15862 -4.551718,5.77122 -3.415599,7.89408 1.909582,3.56808 5.145765,5.25799 22.609636,11.80655 15.134931,5.67527 19.212809,6.81154 25.71329,7.16481 15.512401,0.84304 13.206738,2.23173 85.274298,-51.36023 76.56231,-56.934401 76.42677,-56.836031 77.21778,-56.045023 0.34414,0.344138 -24.1348,25.485921 -54.39764,55.870633 -30.26284,30.3847 -55.76513,56.35755 -56.67175,57.71743 -2.08355,3.12521 -2.12207,8.90621 -0.0788,11.82341 2.29678,3.27912 7.73435,5.70408 40.43039,18.03048 16.225,6.11683 36.25,13.78724 44.5,17.04537 8.25,3.25812 15.31027,5.96984 15.68949,6.02604 0.37921,0.0562 1.8123,-3.61031 3.18464,-8.14781 z" id="path20" inkscape:connector-curvature="0"/>
    <path d="M 102.20372,284.87181 C 96.486567,282.04188 94.598513,279.25495 86.031384,261 69.009673,224.72993 69.579256,226.20243 69.205061,217.5 c -0.294978,-6.86011 -0.0071,-8.65746 2.020706,-12.61419 l 2.364699,-4.61418 -8.545233,-1.05687 C 56.373014,198.14219 27.303251,188.25709 16.362895,182.66045 -0.51568687,174.02607 -4.1161489,154.8447 8.7905807,142.31914 13.199733,138.04021 9.8709363,139.72665 161.5,64.95319 215.95,38.102039 262.66401,15.592913 265.3089,14.93291 c 2.6449,-0.660002 7.40248,-0.964828 10.5724,-0.67739 14.75413,1.337857 24.27192,12.809659 22.8313,27.518566 -0.43094,4.399936 -41.41366,148.528174 -56.29504,197.978694 -3.92323,13.03682 -10.05977,18.60358 -20.41756,18.52178 -4.59428,-0.0363 -10.5662,-2.01971 -36.26446,-12.04439 l -30.76446,-12.00096 -1.149,4.56311 c -1.13718,4.51612 -16.15728,28.23399 -24.59125,38.83141 -7.18561,9.02885 -17.72139,11.85431 -27.02711,7.24808 z m 23.33373,-35.41818 C 131.57942,240.48482 135,234.44833 135,232.75452 c 0,-3.68619 -3.57283,-6.12467 -22.19585,-15.1488 -17.024862,-8.24971 -21.803417,-9.34412 -23.877552,-5.46857 -1.986401,3.71163 -0.279664,8.74247 11.264652,33.20408 l 11.25154,23.84122 2.31605,-2.84122 c 1.27383,-1.56268 6.5742,-9.1621 11.77861,-16.8876 z M 224.88825,230.25 c 10.84594,-35.55591 54.33832,-188.259654 54.4178,-191.063373 0.13075,-4.612539 -3.35735,-7.587185 -7.89796,-6.735363 -1.75386,0.329027 -45.20067,21.339323 -96.54846,46.689548 -51.3478,25.350228 -106.495419,52.534778 -122.550271,60.410128 -24.923267,12.22554 -29.423041,14.76822 -30.780351,17.39296 -3.152601,6.09646 -0.211165,8.36729 21.508948,16.60523 14.756494,5.59679 18.728111,6.70587 25.633442,7.15818 15.748352,1.03155 14.709172,1.62658 73.828602,-42.27408 83.50749,-62.01064 88.56171,-65.704852 89.12421,-65.142357 0.29437,0.294374 -24.40958,25.661853 -54.89766,56.372177 -30.48809,30.71032 -55.94896,56.81987 -56.57972,58.02121 -1.93417,3.68383 -1.37943,8.88586 1.28529,12.0527 2.71063,3.2214 1.40841,2.6729 51.56788,21.72074 19.525,7.41454 38.2,14.58001 41.5,15.92328 3.3,1.34326 6.31818,2.48206 6.70706,2.53066 0.38888,0.0486 2.04541,-4.29914 3.68119,-9.66164 z" id="path18" inkscape:connector-curvature="0"/>
    <path d="m 102.17007,284.80155 c -2.381469,-1.15433 -5.194261,-3.2694 -6.250654,-4.70016 -2.543549,-3.44495 -24.560086,-50.14657 -25.878501,-54.89364 -1.889218,-6.8023 -1.288894,-15.38 1.4549,-20.78827 2.940112,-5.79523 2.94128,-5.80119 0.99079,-5.05271 -3.964386,1.52127 -16.949977,-1.54621 -34.626646,-8.17958 -22.821188,-8.5639 -25.651355,-10.00724 -30.5621549,-15.58621 -8.8584628,-10.06374 -8.4227136,-22.14502 1.1650177,-32.30046 4.8591342,-5.14685 9.4038072,-7.48854 128.5769882,-66.250655 67.9469,-33.50337 125.68591,-61.45561 128.30891,-62.116089 5.86515,-1.476863 15.17217,-0.736204 19.73913,1.570855 9.09527,4.594595 13.33212,11.718249 13.37931,22.495369 0.0302,6.904717 -2.17895,15.119623 -27.83365,103.5 -15.32657,52.8 -28.53534,98.025 -29.35281,100.5 -3.71895,11.25958 -13.2057,17.48052 -23.0307,15.10239 -2.0625,-0.49922 -16.575,-5.86488 -32.25,-11.92368 -15.675,-6.0588 -29.14093,-11.16511 -29.92428,-11.34735 -0.96803,-0.22521 -1.70882,1.036 -2.31251,3.93711 -0.92377,4.43936 -14.69662,26.26315 -23.9211,37.90423 -7.98393,10.07552 -17.74203,12.94203 -27.67204,8.12885 z m 22.7517,-34.23081 c 10.74284,-15.91376 11.72578,-18.71189 7.82823,-22.28457 -3.78936,-3.47351 -35.417934,-18.6195 -38.88211,-18.6195 -4.238932,0 -6.155028,2.69612 -5.56703,7.83333 0.252389,2.20506 4.829003,13.19905 10.198943,24.5 5.357607,11.275 10.395637,22.02877 11.195607,23.89727 1.42396,3.32595 1.49327,3.35744 3.30131,1.5 1.01576,-1.0435 6.38203,-8.61543 11.92505,-16.82653 z M 250.64931,141.69731 c 15.54035,-53.719224 28.53292,-99.151758 28.87237,-100.961186 0.47245,-2.518384 0.0945,-3.954317 -1.61159,-6.123294 -1.90078,-2.416451 -2.75718,-2.758888 -5.81943,-2.326931 C 268.9358,32.730918 31.07165,149.28605 24.408439,153.65195 c -4.972207,3.25792 -5.063271,9.20899 -0.187511,12.25395 1.143231,0.71396 9.773707,4.27049 19.178836,7.9034 L 60.5,180.41459 l 11,0.0427 c 9.172216,0.0356 11.764647,-0.31093 15.601813,-2.08552 2.530997,-1.17052 32.455997,-22.79891 66.499997,-48.06309 34.04401,-25.26418 65.41862,-48.536045 69.72137,-51.715263 4.30275,-3.179217 8.0033,-5.600278 8.22344,-5.380135 0.22015,0.220142 -24.48782,25.57471 -54.90659,56.343488 -30.41877,30.76877 -55.83182,56.92614 -56.47344,58.12748 -2.91439,5.45674 -0.3103,12.66885 5.67171,15.70795 1.46393,0.74374 15.9367,6.34453 32.1617,12.4462 16.225,6.10167 36.925,14.00353 46,17.5597 9.075,3.55616 16.92618,6.35432 17.44706,6.21813 0.52088,-0.13619 13.66189,-44.19971 29.20225,-97.91893 z" id="path16" inkscape:connector-curvature="0"/>
    <path d="M 102.18184,284.40333 C 95.854325,281.25019 95.74533,281.07129 80.916552,249.5 70.228755,226.74508 69.62107,225.10641 69.202943,217.9133 68.769596,210.45838 69.229869,208.63277 73.782291,199.75 73.993698,199.3375 71.285842,199 67.764835,199 64.243827,199 58.918827,198.27553 55.931501,197.39006 48.882534,195.30069 19.685562,184.40588 15.928284,182.46291 7.3728012,178.0387 1.0195378,168.46628 1.0195378,160 c 0,-6.19334 3.7557838,-13.75474 9.2079602,-18.5381 C 14.294701,137.89362 78.489824,105.78873 245,24.048846 c 15.8674,-7.78931 19.44396,-9.169499 25.13343,-9.69897 11.27002,-1.048801 20.22633,3.302286 25.59427,12.43401 2.38518,4.057563 2.76468,5.763402 2.71772,12.216114 -0.0494,6.782038 -2.8015,16.956889 -28.7495,106.28886 -15.78221,54.33388 -29.57542,100.51477 -30.65157,102.62421 -2.51056,4.92111 -7.18178,8.83449 -11.51585,9.64756 -7.08485,1.32913 -13.28022,-0.39297 -42.5285,-11.82145 -16.225,-6.33975 -29.8375,-11.32305 -30.25,-11.07399 -0.4125,0.24907 -0.75,1.34421 -0.75,2.43367 0,2.92882 -3.28496,8.90816 -12.73161,23.17431 -9.6773,14.61447 -17.3089,23.42798 -21.97405,25.37721 -5.06221,2.11512 -11.27387,1.66246 -17.1125,-1.24705 z m 23.82932,-35.2447 c 9.3202,-13.88378 10.58135,-17.42326 7.35693,-20.64768 -2.21952,-2.21952 -34.079313,-18.08411 -38.052943,-18.94846 -2.525989,-0.54946 -3.636259,-0.24138 -5.366879,1.48924 -3.475168,3.47517 -2.19364,8.56397 7.054728,28.01352 4.559674,9.58911 9.627644,20.35496 11.262144,23.92411 l 2.97184,6.48936 2.89267,-3.46496 c 1.59097,-1.90573 6.93766,-9.49053 11.88151,-16.85513 z M 251.28687,139.91853 C 273.31519,63.84141 279.93503,39.726163 279.48293,37.203982 278.76989,33.226144 275.57888,31.461861 270.82653,32.417926 268.99694,32.785997 212.6448,60.180039 145.59956,93.293573 56.947425,137.07871 23.15912,154.22632 21.7193,156.16295 c -2.587389,3.48016 -1.657936,7.29563 2.37462,9.74797 1.672135,1.01689 11.222558,4.8745 21.223163,8.57247 L 63.5,181.20697 l 9.595702,-0.38263 c 8.219686,-0.32777 10.442375,-0.8107 15.5,-3.36772 3.247364,-1.64179 35.636768,-25.07837 71.976458,-52.08127 36.33969,-27.002911 67.38969,-49.936112 69,-50.962673 C 231.18247,73.386116 207.3,98.090922 176.5,129.31225 c -35.80571,36.2955 -56.42723,57.92391 -57.18472,59.97689 -1.97698,5.35804 0.1219,10.47274 5.53545,13.48919 2.0071,1.11836 18.04927,7.46152 35.64927,14.09591 17.6,6.63439 38.3,14.5354 46,17.5578 7.7,3.0224 14.45,5.36247 15,5.20015 0.55,-0.16233 13.95409,-45.03347 29.78687,-99.71366 z" id="path14" inkscape:connector-curvature="0"/>
  </g>
</svg>